<svg xmlns="http://www.w3.org/2000/svg" width="16" height="17" viewBox="0 0 16 17" fill="none">
  <path d="M8.05733 4.23733C8.50933 4.23733 8.876 4.58667 8.876 5.01467L8.88667 7.92667C8.88667 8.28 9.15067 8.59333 9.51067 8.66267L12.3733 9.408C12.7 9.46933 12.9347 9.74133 12.9347 10.068L12.9293 10.2013L12.404 14.636C12.3927 14.7372 12.3441 14.8306 12.2677 14.8979C12.1913 14.9652 12.0925 15.0016 11.9907 15H7.548C7.38493 15.0012 7.22389 14.9638 7.07794 14.8911C6.93199 14.8184 6.80525 14.7122 6.708 14.5813L3.81333 10.66C3.73527 10.5537 3.69323 10.4252 3.69333 10.2933C3.69333 10.0293 3.85733 9.80667 4.13067 9.70267L4.31467 9.63333L4.46133 9.75867L5.91467 10.9867C6.03765 11.0872 6.18674 11.1507 6.34448 11.1696C6.50222 11.1885 6.66208 11.162 6.80533 11.0933C7.06267 10.9733 7.22933 10.6587 7.22933 10.3427L7.24 5.01333C7.24 4.584 7.60667 4.236 8.05733 4.236V4.23733ZM13.2493 2C14.7667 2 16 3.24933 16 4.78667C16 6.32133 14.7667 7.572 13.2493 7.572H11C10.9339 7.57165 10.8685 7.55826 10.8075 7.53259C10.7466 7.50692 10.6913 7.46948 10.6449 7.42242C10.5984 7.37535 10.5617 7.31958 10.5369 7.25831C10.512 7.19703 10.4995 7.13146 10.5 7.06533C10.5 6.78533 10.724 6.55867 11 6.55867H13.2507C14.2147 6.55867 15 5.76267 15 4.78533C15 3.808 14.2147 3.012 13.2493 3.012H2.752C1.78667 3.012 1.00133 3.808 1.00133 4.78533C1.00133 5.76267 1.78667 6.55867 2.752 6.55867H5C5.276 6.55867 5.5 6.78533 5.5 7.06533C5.5 7.34533 5.276 7.572 5 7.572H2.74933C1.23333 7.572 0 6.32133 0 4.78533C0 3.24933 1.23333 2 2.75067 2H13.2493Z" fill="#636366"/>
</svg>