<svg xmlns="http://www.w3.org/2000/svg" width="16" height="17" viewBox="0 0 16 17" fill="none">
  <path fill-rule="evenodd" clip-rule="evenodd" d="M8 16.5C12.4183 16.5 16 12.9183 16 8.5C16 4.08172 12.4183 0.5 8 0.5C3.58172 0.5 0 4.08172 0 8.5C0 12.9183 3.58172 16.5 8 16.5ZM8.39231 4.57847C8.43563 4.36184 8.29515 4.15111 8.07852 4.10779C7.8619 4.06446 7.65117 4.20495 7.60784 4.42157L7.5009 4.95629C6.89508 5.09502 6.371 5.47979 5.98294 5.9972C5.49189 6.65193 5.2 7.53811 5.2 8.49994C5.2 9.46178 5.49189 10.348 5.98294 11.0027C6.06085 11.1066 6.14425 11.2051 6.23269 11.2974L6.00784 12.4216C5.96452 12.6382 6.10501 12.8489 6.32163 12.8923C6.53825 12.9356 6.74898 12.7951 6.79231 12.5785L6.94085 11.8358C7.17009 11.9555 7.41676 12.0386 7.67685 12.0765L7.60784 12.4216C7.56452 12.6382 7.70501 12.8489 7.92163 12.8923C8.13825 12.9356 8.34898 12.7951 8.39231 12.5785L8.49921 12.044C9.36679 11.8462 10.0617 11.1446 10.4459 10.2591C10.5338 10.0565 10.4408 9.82092 10.2381 9.73299C10.0355 9.64506 9.79989 9.73808 9.71197 9.94074C9.4662 10.5072 9.09791 10.9154 8.68216 11.1292L9.55775 6.75125C9.6133 6.8479 9.66489 6.95062 9.71197 7.05915C9.79989 7.26181 10.0355 7.35482 10.2381 7.2669C10.4408 7.17897 10.5338 6.9434 10.4459 6.74074C10.2763 6.34989 10.0462 5.99485 9.76737 5.70316L9.99231 4.57847C10.0356 4.36184 9.89515 4.15111 9.67852 4.10779C9.4619 4.06446 9.25117 4.20495 9.20784 4.42157L9.05945 5.16354C8.8304 5.04377 8.58389 4.96097 8.32337 4.92318L8.39231 4.57847ZM8.89249 5.99833L7.83412 11.2902C7.58076 11.2604 7.33452 11.1624 7.10759 11.0021L8.16603 5.70984C8.41858 5.73997 8.66541 5.83839 8.89249 5.99833ZM7.31821 5.86973C7.06345 6.00074 6.82667 6.20556 6.62294 6.4772C6.24536 6.98064 6 7.69447 6 8.49994C6 9.16855 6.16906 9.77401 6.44248 10.2484L7.31821 5.86973Z" fill="#636366"/>
</svg>