<svg xmlns="http://www.w3.org/2000/svg" width="16" height="17" viewBox="0 0 16 17" fill="none">
  <path opacity="0.8" d="M9.63112 11.7256L7.69713 12.9708C7.52739 13.0812 7.30953 13.0915 7.12909 12.9991C6.94999 12.9066 6.83772 12.7256 6.83906 12.5305V10.4689C6.83639 10.4201 6.86178 10.3726 6.90589 10.3457C6.94999 10.32 7.00479 10.3161 7.05024 10.338L9.61108 11.4727C9.6632 11.4933 9.69795 11.5395 9.7033 11.5934C9.70731 11.6473 9.67924 11.6974 9.63112 11.7256Z" fill="#636366"/>
  <path d="M6.92478 10.6242L0.477234 6.93098C0.149778 6.74356 -0.0346671 6.39183 0.00542958 6.02725C0.0455263 5.66268 0.303482 5.35459 0.664352 5.23906L15.0029 0.538129C15.3264 0.438 15.6792 0.56252 15.8597 0.837233C16.0414 1.11323 16.0067 1.47267 15.7755 1.71015L6.92344 10.6242H6.92478Z" fill="#636366"/>
  <path d="M6.90457 10.6833C6.90457 10.6833 10.0695 14.2558 11.8071 16.1814C12.0583 16.4561 12.4526 16.5652 12.8162 16.4612C13.181 16.356 13.4497 16.0581 13.5031 15.6961L15.9758 1.40208C16.0613 1.08372 15.913 0.74996 15.6136 0.59078C15.3142 0.431601 14.9413 0.485516 14.7047 0.723002L6.93932 9.63063C6.64528 9.91818 6.62924 10.3765 6.90457 10.6833Z" fill="#636366"/>
</svg>