<svg xmlns="http://www.w3.org/2000/svg" width="16" height="17" viewBox="0 0 16 17" fill="none">
  <path d="M12.9434 3.99486H12.1663C11.8531 1.97543 10.14 0.5 8.03943 0.5C5.93657 0.5 4.22343 2.05429 3.91257 3.99486H3.13429C2.27714 3.99486 1.5 4.69429 1.5 5.62571V14.8691C1.5 15.7229 2.20057 16.5 3.13429 16.5H12.8646C13.7217 16.5 14.4989 15.8006 14.4989 14.8691V5.548C14.4989 4.69429 13.7983 3.99486 12.9423 3.99486H12.9434ZM8.04057 1.35486C9.596 1.35486 10.9206 2.51943 11.2314 3.99486H4.84629C5.15943 2.44286 6.48171 1.35486 8.03943 1.35486H8.04057Z" fill="#636366"/>
</svg>