<svg xmlns="http://www.w3.org/2000/svg" width="16" height="17" viewBox="0 0 16 17" fill="none">
  <path fill-rule="evenodd" clip-rule="evenodd" d="M4.24573 6.24756C5.04572 5.45073 6.12476 5.00391 7.24908 5.00391C8.37339 5.00391 9.45243 5.45073 10.2524 6.24756C10.5134 6.50891 10.7196 6.80078 10.8955 7.106L9.50158 8.49856C9.43539 8.56533 9.35406 8.60348 9.27463 8.64927C9.17799 8.30941 8.99779 7.99969 8.75075 7.74887C8.35075 7.35045 7.81123 7.12704 7.24908 7.12704C6.68692 7.12704 6.1474 7.35045 5.7474 7.74887L2.74406 10.7515C2.54718 10.948 2.39089 11.182 2.28422 11.4398C2.17756 11.6977 2.12264 11.9743 2.12264 12.2537C2.12264 12.5331 2.17756 12.8098 2.28422 13.0676C2.39089 13.3255 2.54718 13.5594 2.74406 13.756C3.57244 14.5839 4.91903 14.5839 5.7474 13.756L6.81597 12.6877C7.68218 13.0235 8.61647 13.115 9.52617 12.9815L7.24908 15.2573C6.44917 16.0535 5.37053 16.5 4.24668 16.5C3.12282 16.5 2.04418 16.0535 1.24428 15.2573C0.850121 14.8646 0.537171 14.3969 0.323578 13.8813C0.109986 13.3657 0 12.8125 0 12.2537C0 11.6949 0.109986 11.1417 0.323578 10.6261C0.537171 10.1105 0.850121 9.64284 1.24428 9.25017L4.24573 6.24756ZM14.7574 1.74366C16.4142 3.40139 16.4142 6.09114 14.7574 7.74887L11.7541 10.7515C10.0954 12.4111 7.40605 12.4111 5.7474 10.7515C5.49785 10.4947 5.28176 10.2069 5.10437 9.89495L6.49824 8.50047C6.56443 8.4318 6.64765 8.39364 6.72519 8.34786C6.82165 8.67979 6.98997 8.99073 7.24908 9.25017C7.64907 9.64859 8.18859 9.872 8.75075 9.872C9.3129 9.872 9.85242 9.64859 10.2524 9.25017L13.2539 6.24756C13.4507 6.05118 13.6069 5.81738 13.7136 5.55968C13.8202 5.30198 13.8751 5.02551 13.8751 4.74626C13.8751 4.46702 13.8202 4.19055 13.7136 3.93285C13.6069 3.67515 13.4507 3.44134 13.2539 3.24496C12.854 2.84712 12.3148 2.62407 11.7531 2.62407C11.1914 2.62407 10.6523 2.84712 10.2524 3.24496L9.18385 4.31323C8.32129 3.98148 7.3885 3.87964 6.47554 4.01755L8.75075 1.74366C9.55073 0.946822 10.6298 0.5 11.7541 0.5C12.8784 0.5 13.9574 0.946822 14.7574 1.74366Z" fill="#636366"/>
</svg>