<svg width="20" height="20" viewBox="0 0 20 20" fill="none" xmlns="http://www.w3.org/2000/svg">
<path d="M10.5984 0C10.8071 0.0256614 11.0159 0.0501693 11.2244 0.0771635C13.3342 0.332092 15.3033 1.26267 16.8346 2.72845C18.2883 4.06947 19.2865 5.82719 19.6906 7.75782C20.3204 10.7527 19.7192 13.501 17.8436 15.936C16.3666 17.8534 14.4164 19.0932 12.0319 19.5608C8.55443 20.2428 5.49775 19.3541 2.94205 16.9035C1.40372 15.4474 0.408962 13.5142 0.121135 11.4215C-0.34284 8.24093 0.52547 5.43961 2.7358 3.08416C4.27455 1.44439 6.19251 0.479288 8.41668 0.115423C8.68339 0.071789 8.9545 0.0548357 9.22342 0.0241813C9.25751 0.0182543 9.29118 0.0101795 9.32424 3.42949e-06L10.5984 0ZM1.19591 9.9185C1.19816 12.219 2.10625 14.427 3.72559 16.0696C5.34494 17.7121 7.54671 18.6584 9.85911 18.7058C11.03 18.7328 12.1945 18.5275 13.2848 18.102C14.3751 17.6765 15.3692 17.0393 16.2092 16.2275C17.0492 15.4157 17.7182 14.4457 18.1771 13.374C18.6361 12.3023 18.8759 11.1503 18.8824 9.98546C18.9116 5.03935 14.9329 1.26082 10.2455 1.15103C9.06958 1.12457 7.90012 1.33155 6.80553 1.75987C5.71094 2.18819 4.71318 2.82925 3.87058 3.64557C3.02799 4.46189 2.35747 5.4371 1.89822 6.51417C1.43897 7.59125 1.20022 8.74858 1.19591 9.9185Z" fill="#fff"/>
<path d="M16.314 10.0295C16.3135 10.8429 16.1512 11.6481 15.8365 12.3989C15.5217 13.1496 15.0607 13.8309 14.48 14.4036C13.8993 14.9763 13.2104 15.4291 12.4531 15.7358C11.6957 16.0426 10.8847 16.1972 10.067 16.1908C9.24943 16.1872 8.44068 16.0229 7.68727 15.7071C6.93385 15.3914 6.25065 14.9306 5.677 14.3513C5.10334 13.7719 4.65055 13.0854 4.34469 12.3313C4.03883 11.5772 3.88594 10.7704 3.89482 9.95728C3.9153 8.33337 4.57907 6.78305 5.74198 5.64302C6.9049 4.50299 8.47305 3.86532 10.1059 3.86848C10.9204 3.86688 11.7273 4.02505 12.4803 4.33394C13.2334 4.64283 13.9178 5.09637 14.4944 5.66862C15.071 6.24086 15.5285 6.92058 15.8408 7.66887C16.153 8.41716 16.3138 9.21935 16.314 10.0295Z" fill="#fff"/>
</svg>
