<svg xmlns="http://www.w3.org/2000/svg" width="16" height="15" viewBox="0 0 16 15" fill="none">
  <path opacity="0.2" fill-rule="evenodd" clip-rule="evenodd" d="M1.0206 10.6808C1.28364 10.3536 1.77162 10.2942 2.11052 10.5482C2.19814 10.6138 2.29972 10.6796 2.41643 10.744L5.65957 12.5333C6.29672 12.8849 7.181 13.082 8.10746 13.082C9.03391 13.082 9.91819 12.8849 10.5553 12.5333L13.7985 10.744C13.9152 10.6796 14.0168 10.6138 14.1044 10.5482C14.4433 10.2942 14.9313 10.3536 15.1943 10.6808C15.4574 11.008 15.3959 11.4792 15.0569 11.7331C14.9072 11.8454 14.7443 11.9498 14.5693 12.0464L11.3261 13.8357C10.3985 14.3475 9.23189 14.582 8.10746 14.582C6.98302 14.582 5.81641 14.3475 4.88879 13.8357L1.64565 12.0464C1.47064 11.9498 1.30769 11.8453 1.15797 11.7331C0.819062 11.4792 0.757561 11.008 1.0206 10.6808Z" fill="white"/>
  <path opacity="0.55" d="M5.27414 0.647493C6.83892 -0.215831 9.37592 -0.215831 10.9407 0.647493L14.1838 2.43681C15.7486 3.30014 15.7486 4.69986 14.1838 5.56319L10.9407 7.35251C9.37592 8.21583 6.83892 8.21583 5.27414 7.35251L2.031 5.56319C0.466228 4.69986 0.466228 3.30014 2.031 2.43681L5.27414 0.647493Z" fill="white"/>
  <path opacity="0.3" fill-rule="evenodd" clip-rule="evenodd" d="M1.0206 7.38979C1.28364 7.06257 1.77162 7.00319 2.11052 7.25716C2.19814 7.32282 2.29972 7.38861 2.41643 7.453L5.65957 9.24232C6.29672 9.59385 7.181 9.791 8.10746 9.791C9.03391 9.791 9.91819 9.59385 10.5553 9.24232L13.7985 7.453C13.9152 7.3886 14.0168 7.32282 14.1044 7.25717C14.4433 7.0032 14.9313 7.06258 15.1943 7.3898C15.4574 7.71702 15.3959 8.18816 15.0569 8.44213C14.9072 8.55434 14.7443 8.65882 14.5693 8.75537L11.3261 10.5447C10.3985 11.0565 9.23189 11.291 8.10746 11.291C6.98302 11.291 5.81641 11.0565 4.88879 10.5447L1.64565 8.75537C1.47064 8.65881 1.30769 8.55432 1.15797 8.44213C0.819062 8.18816 0.757561 7.71701 1.0206 7.38979Z" fill="white"/>
</svg>