<svg xmlns="http://www.w3.org/2000/svg" width="26" height="24" viewBox="0 0 26 24" fill="none">
  <path d="M13.3494 19.4931C17.774 19.4931 21.4259 15.9681 21.4259 11.7031C21.4259 7.44006 17.7657 3.91406 13.3422 3.91406C8.92587 3.91406 5.28223 7.44006 5.28223 11.7041C5.28223 15.9681 8.93312 19.4941 13.3504 19.4941L13.3494 19.4931ZM13.3494 14.3101C11.1495 14.3101 9.44062 15.0711 8.61412 15.9451C7.51027 14.7905 6.89976 13.2754 6.90519 11.7041C6.90109 10.8861 7.06467 10.0754 7.38652 9.31874C7.70836 8.56207 8.1821 7.87437 8.78044 7.29527C9.37878 6.71617 10.0899 6.25711 10.8728 5.94454C11.6557 5.63197 12.495 5.47207 13.3422 5.47406C14.191 5.47156 15.0319 5.63089 15.8168 5.9429C16.6017 6.25492 17.3151 6.71349 17.916 7.2923C18.517 7.87111 18.9936 8.55877 19.3187 9.31585C19.6437 10.0729 19.8107 10.8845 19.8102 11.7041C19.8152 13.279 19.202 14.7972 18.094 15.9531C17.2665 15.0711 15.5575 14.3101 13.3504 14.3101H13.3494ZM13.3494 13.0751C14.8636 13.0901 16.0423 11.8391 16.0423 10.2271C16.0423 8.70506 14.8553 7.43206 13.3494 7.43206C11.8518 7.43206 10.6576 8.70506 10.6659 10.2271C10.6731 11.8391 11.8445 13.0671 13.3494 13.0751Z" fill="white"/>
</svg>