<svg xmlns="http://www.w3.org/2000/svg" width="25" height="24" viewBox="0 0 25 24" fill="none">
  <path d="M21.8743 0C23.5211 0 24.8571 1.29 24.8571 2.88V21.12C24.8571 22.71 23.5211 24 21.8743 24H2.98286C1.33607 24 0 22.71 0 21.12V2.88C0 1.29 1.33607 0 2.98286 0H21.8743ZM21.8743 1.518H11.6652V22.481H21.8743C22.6076 22.481 23.2104 21.941 23.2787 21.251L23.2849 21.12V2.88C23.2849 2.128 22.6531 1.518 21.8743 1.518ZM8.98275 15.588H3.46964C2.97975 15.588 2.58307 15.972 2.58307 16.444C2.58307 16.917 2.97975 17.3 3.46964 17.3H8.98275C9.47161 17.3 9.86829 16.917 9.86829 16.444C9.86829 15.972 9.47161 15.589 8.98275 15.589V15.588ZM8.98275 11.144H3.46964C2.97975 11.144 2.58307 11.528 2.58307 12C2.58307 12.472 2.97975 12.856 3.46964 12.856H8.98275C9.47161 12.856 9.86829 12.472 9.86829 12C9.86829 11.528 9.47161 11.144 8.98275 11.144ZM8.98275 6.7H3.46964C2.97975 6.7 2.58307 7.083 2.58307 7.556C2.58307 8.028 2.97975 8.411 3.46964 8.411H8.98275C9.47161 8.411 9.86829 8.028 9.86829 7.556C9.86829 7.083 9.47161 6.7 8.98275 6.7Z" fill="white"/>
</svg>