<svg xmlns="http://www.w3.org/2000/svg" width="18" height="17" viewBox="0 0 18 17" fill="none">
  <path d="M10.6857 16.1263C11.2943 16.1263 11.7156 15.6517 12.0042 14.9284L17.1539 1.92567C17.2866 1.58667 17.3646 1.29286 17.3646 1.03672C17.3646 0.501852 17.0135 0.162842 16.4517 0.162842C16.1942 0.162842 15.8822 0.230642 15.5388 0.358712L2.00924 5.36094C1.33822 5.60955 0.831055 6.01632 0.831055 6.60392C0.831055 7.32722 1.38504 7.59842 2.14968 7.81682L7.78309 9.41392L9.42169 14.7928C9.65577 15.5613 9.93665 16.1263 10.6857 16.1263ZM8.2357 8.02782L3.39029 6.59642C3.27325 6.56632 3.24204 6.52862 3.24204 6.48342C3.24204 6.43072 3.27325 6.38552 3.37469 6.35532L12.6363 2.93516C13.2995 2.68656 13.9471 2.38522 14.6571 2.06881C14.0954 2.50575 13.4088 3.04063 12.9406 3.49264L8.2357 8.02782ZM10.8261 13.806C10.7715 13.806 10.7325 13.7608 10.7012 13.6553L9.2188 8.97702L13.9159 4.43432C14.3685 3.98985 14.9459 3.3043 15.3984 2.75436C15.0707 3.44744 14.7508 4.08025 14.4933 4.72813L10.9509 13.6704C10.912 13.7683 10.8807 13.806 10.8261 13.806Z" fill="white"/>
</svg>