<svg xmlns="http://www.w3.org/2000/svg" width="107" height="20" viewBox="0 0 107 20" fill="none">
  <path d="M10.5984 0C10.8071 0.0256614 11.0159 0.0501693 11.2244 0.0771635C13.3342 0.332092 15.3033 1.26267 16.8346 2.72845C18.2883 4.06947 19.2865 5.82719 19.6906 7.75782C20.3204 10.7527 19.7192 13.501 17.8436 15.936C16.3666 17.8534 14.4164 19.0932 12.0319 19.5608C8.55443 20.2428 5.49775 19.3541 2.94205 16.9035C1.40372 15.4474 0.408962 13.5142 0.121135 11.4215C-0.34284 8.24093 0.52547 5.43961 2.7358 3.08416C4.27455 1.44439 6.19251 0.479288 8.41668 0.115423C8.68339 0.071789 8.9545 0.0548357 9.22342 0.0241813C9.25751 0.0182543 9.29118 0.0101795 9.32424 3.42949e-06L10.5984 0ZM1.19591 9.9185C1.19816 12.219 2.10625 14.427 3.72559 16.0696C5.34494 17.7121 7.54671 18.6584 9.85911 18.7058C11.03 18.7328 12.1945 18.5275 13.2848 18.102C14.3751 17.6765 15.3692 17.0393 16.2092 16.2275C17.0492 15.4157 17.7182 14.4457 18.1771 13.374C18.6361 12.3023 18.8759 11.1503 18.8824 9.98546C18.9116 5.03935 14.9329 1.26082 10.2455 1.15103C9.06958 1.12457 7.90012 1.33155 6.80553 1.75987C5.71094 2.18819 4.71318 2.82925 3.87058 3.64557C3.02799 4.46189 2.35747 5.4371 1.89822 6.51417C1.43897 7.59125 1.20022 8.74858 1.19591 9.9185Z" fill="#fff"/>
  <path d="M107 5.00974C106.927 5.14548 106.842 5.27452 106.746 5.39532C106.535 5.61957 106.247 5.62473 105.964 5.61468C104.58 5.56547 103.494 6.11828 102.693 7.22592C102.178 7.93822 101.901 8.79422 101.902 9.67209C101.888 11.4042 101.893 13.1365 101.89 14.8687C101.889 15.3974 101.583 15.6963 101.05 15.7049C100.741 15.7098 100.452 15.667 100.275 15.3914C100.185 15.2583 100.134 15.1036 100.125 14.9437C100.117 11.5508 100.115 8.15795 100.119 4.76506C100.117 4.56957 100.192 4.38106 100.329 4.2401C100.465 4.09914 100.651 4.017 100.848 4.01137C100.951 4.00648 101.056 4.00609 101.159 4.01076C101.258 4.01297 101.355 4.03452 101.445 4.07417C101.535 4.11382 101.616 4.17078 101.684 4.24178C101.752 4.31279 101.805 4.39643 101.84 4.48791C101.875 4.57938 101.892 4.67689 101.889 4.77481C101.892 5.36272 101.89 5.95065 101.89 6.53857C101.89 6.58145 101.894 6.62432 101.898 6.70841C101.946 6.63236 101.975 6.59019 102 6.54654C102.555 5.60383 103.298 4.86256 104.311 4.41077C104.919 4.13858 105.582 4.01275 106.248 4.0435C106.401 4.04845 106.549 4.09844 106.673 4.18711C106.797 4.27579 106.892 4.39916 106.945 4.54156C106.963 4.58105 106.982 4.62026 107 4.6596V5.00974Z" fill="#fff"/>
  <path d="M28.0164 6.35936C28.3733 5.87575 28.7922 5.44067 29.2625 5.06519C30.1824 4.34153 31.3379 3.97981 32.5087 4.04896C33.6795 4.11811 34.7838 4.6133 35.6111 5.44016C36.6768 6.47799 37.3193 7.87098 37.415 9.35138C37.5497 11.0354 37.1221 12.5644 36.0408 13.8844C35.262 14.835 34.2718 15.4629 33.0445 15.6772C31.6286 15.9244 30.3598 15.571 29.2338 14.6992C29.0043 14.5174 28.7893 14.3184 28.5906 14.1037C28.3935 13.8952 28.2222 13.6625 28.0248 13.4223C28.0217 13.4792 28.0168 13.5279 28.0168 13.5766C28.0164 15.3541 28.0162 17.1317 28.0162 18.9092C28.016 19.3888 27.7496 19.7361 27.3106 19.8342C27.1825 19.863 27.0495 19.8628 26.9214 19.8338C26.7933 19.8048 26.6734 19.7476 26.5704 19.6665C26.4674 19.5854 26.384 19.4824 26.3262 19.365C26.2685 19.2477 26.2379 19.1189 26.2367 18.9883C26.2356 14.2841 26.2356 9.57988 26.2366 4.87569C26.2371 4.65089 26.3255 4.43509 26.4829 4.27381C26.6404 4.11252 26.8546 4.01837 27.0806 4.01119C27.3065 3.99446 27.53 4.06698 27.7025 4.21304C27.875 4.35909 27.9827 4.5669 28.0022 4.7914C28.0282 5.26581 28.0134 5.74241 28.0164 6.21805C28.0167 6.26516 28.0164 6.31226 28.0164 6.35936ZM35.7117 9.86815C35.6825 8.59408 35.264 7.45521 34.3193 6.52781C33.7185 5.92502 32.917 5.56132 32.0654 5.50511C31.2139 5.44889 30.3711 5.70404 29.6954 6.22255C28.5672 7.08323 28.0243 8.25759 27.9522 9.64834C27.884 10.965 28.2729 12.138 29.1819 13.1153C30.6405 14.6832 32.9825 14.6864 34.4537 13.1278C35.3109 12.2197 35.688 11.1251 35.7117 9.86815Z" fill="#fff"/>
  <path d="M88.7207 10.5806C88.7882 10.9998 88.9215 11.4058 89.1158 11.7838C89.6955 12.8996 90.5725 13.6584 91.8229 13.9346C92.6978 14.1278 93.5557 13.9953 94.3943 13.7172C94.9067 13.5638 95.3734 13.2876 95.7533 12.9128C95.9625 12.6968 96.2108 12.6177 96.4907 12.7305C96.6131 12.7751 96.7221 12.8498 96.8075 12.9477C96.893 13.0456 96.9521 13.1635 96.9794 13.2902C97.0066 13.417 97.0011 13.5486 96.9634 13.6727C96.9256 13.7968 96.8568 13.9093 96.7635 13.9998C96.1362 14.6403 95.3645 15.0358 94.5174 15.2976C93.5657 15.6083 92.5557 15.7014 91.5628 15.5701C90.4628 15.42 89.4378 14.9306 88.6322 14.1707C87.3016 12.9308 86.6577 11.3877 86.729 9.58242C86.8121 7.47629 87.7465 5.81783 89.5655 4.71041C90.6072 4.08613 91.8292 3.82717 93.0362 3.97491C94.2433 4.12264 95.3657 4.66855 96.2241 5.52539C97.4356 6.73107 98.0055 8.19714 97.9988 9.89217C97.9943 10.0739 97.9194 10.2469 97.7898 10.375C97.6602 10.5032 97.4859 10.5767 97.3032 10.5802C97.2626 10.5818 97.2219 10.5806 97.1812 10.5806C94.4256 10.5806 91.6699 10.5806 88.9143 10.5806L88.7207 10.5806ZM96.3911 9.14566C96.303 8.49 96.0731 7.86111 95.7173 7.30226C94.8167 5.88652 93.1853 5.23121 91.6016 5.68961C90.2394 6.08392 89.3685 7.00941 88.8948 8.318C88.7997 8.58081 88.7478 8.85905 88.6718 9.14566L96.3911 9.14566Z" fill="#fff"/>
  <path d="M65.3942 10.5806C65.6534 12.1266 66.8029 13.5771 68.4953 13.9381C69.2729 14.104 70.0401 14.0121 70.7966 13.8018C71.3637 13.6608 71.8892 13.3883 72.3302 13.0066C72.3609 12.98 72.3901 12.9519 72.4176 12.9222C72.4971 12.8197 72.6069 12.7446 72.7315 12.7072C72.8561 12.6698 72.9893 12.6722 73.1125 12.7138C73.2429 12.7525 73.3606 12.8247 73.454 12.923C73.5474 13.0214 73.6131 13.1425 73.6445 13.2741C73.6758 13.4057 73.6718 13.5433 73.6328 13.6728C73.5937 13.8024 73.5211 13.9195 73.4221 14.0123C72.8308 14.5911 72.1069 15.0183 71.3127 15.2569C70.219 15.614 69.1001 15.7566 67.9632 15.5221C66.22 15.1625 64.9353 14.1662 64.0984 12.6205C63.5253 11.5648 63.285 10.3619 63.4088 9.16847C63.5325 7.97503 64.0146 6.84628 64.7924 5.92914C65.9383 4.58233 67.4176 3.88312 69.1966 3.94675C71.2055 4.01861 72.7314 4.97463 73.7921 6.65699C74.3787 7.59174 74.6813 8.67511 74.6635 9.77684C74.662 10.1821 74.5076 10.4378 74.1784 10.5397C74.0833 10.5672 73.9846 10.5804 73.8855 10.579C71.1163 10.581 68.347 10.5815 65.5778 10.5806L65.3942 10.5806ZM65.3689 9.14444H73.0537C73.0554 9.11952 73.0552 9.09452 73.0533 9.06962C72.945 8.32457 72.6466 7.61954 72.1865 7.02176C71.3151 5.92012 70.1753 5.40094 68.7674 5.58661C66.8455 5.84006 65.5813 7.48255 65.3689 9.14444Z" fill="#fff"/>
  <path d="M48.5651 6.36397V6.22404C48.5651 5.7887 48.5644 5.35337 48.5653 4.91804C48.5622 4.80016 48.5827 4.68284 48.6257 4.57297C48.6688 4.46309 48.7334 4.36287 48.816 4.27819C48.8985 4.19352 48.9972 4.1261 49.1062 4.07988C49.2153 4.03366 49.3326 4.00958 49.4511 4.00906C49.5697 4.00853 49.6871 4.03156 49.7966 4.07681C49.9061 4.12206 50.0054 4.1886 50.0887 4.27254C50.1719 4.35648 50.2375 4.45612 50.2815 4.56561C50.3256 4.6751 50.3471 4.79223 50.345 4.91013C50.346 8.2043 50.346 11.4985 50.345 14.7927C50.3465 14.9098 50.3246 15.0261 50.2806 15.1348C50.2366 15.2435 50.1713 15.3425 50.0886 15.4259C50.0058 15.5093 49.9072 15.5755 49.7986 15.6207C49.6899 15.6659 49.5732 15.6892 49.4554 15.6893C49.3376 15.6893 49.2209 15.666 49.1122 15.6209C49.0035 15.5757 48.9049 15.5095 48.8221 15.4261C48.7393 15.3427 48.674 15.2438 48.63 15.1352C48.5859 15.0265 48.564 14.9102 48.5655 14.793C48.5638 14.3936 48.5651 13.9941 48.5651 13.5947V13.4509L48.5372 13.4395C48.4987 13.4902 48.4594 13.5402 48.4219 13.5916C47.7166 14.5586 46.8155 15.2706 45.6468 15.5874C43.9388 16.0504 42.4183 15.6484 41.1069 14.4898C40.0664 13.5705 39.4705 12.393 39.2366 11.0393C38.978 9.65982 39.186 8.23398 39.8281 6.98446C40.4616 5.74856 41.3947 4.80752 42.7247 4.33228C44.4657 3.71013 46.054 4.04608 47.4787 5.19619C47.8651 5.5147 48.2034 5.88687 48.4833 6.30125C48.4998 6.32513 48.5178 6.34798 48.5351 6.37132L48.5651 6.36397ZM48.6425 9.89434C48.6117 8.61436 48.2051 7.48264 47.2771 6.56079C46.6333 5.90198 45.7547 5.52171 44.8312 5.50224C43.9078 5.48276 43.0137 5.82565 42.3425 6.45673C41.5039 7.21992 40.9888 8.27203 40.902 9.39929C40.7684 10.7767 41.1223 12.0155 42.0496 13.0654C43.4623 14.6649 45.7911 14.7383 47.2983 13.2327C48.2191 12.3129 48.6172 11.1793 48.6425 9.89434Z" fill="#fff"/>
  <path d="M57.3322 12.4346C57.4851 12.0983 57.626 11.7893 57.7662 11.4799C58.8065 9.18379 59.8468 6.88771 60.8873 4.59166C61.1135 4.09276 61.6246 3.88595 62.0937 4.09759C62.201 4.14568 62.2976 4.21454 62.3778 4.30015C62.458 4.38575 62.5204 4.48639 62.5611 4.5962C62.6018 4.706 62.6201 4.82277 62.615 4.9397C62.6099 5.05662 62.5814 5.17136 62.5312 5.27722C62.1055 6.22182 61.6778 7.16554 61.2482 8.10837C59.5905 11.7692 57.9336 15.4303 56.2776 19.0919C56.1438 19.3881 55.9535 19.6108 55.628 19.6867C55.4653 19.7266 55.2945 19.7201 55.1353 19.6679C54.9761 19.6157 54.8349 19.5199 54.728 19.3915C54.621 19.2631 54.5527 19.1073 54.5307 18.942C54.5088 18.7767 54.5341 18.6086 54.6039 18.457C54.9445 17.6954 55.2913 16.9365 55.6358 16.1767C55.8562 15.6906 56.0747 15.2036 56.3 14.7197C56.3199 14.6806 56.33 14.6373 56.3295 14.5935C56.329 14.5497 56.3178 14.5066 56.297 14.468C54.912 11.417 53.5284 8.36537 52.1463 5.31306C51.9511 4.88219 52.0465 4.44968 52.3931 4.18851C52.5014 4.10669 52.627 4.05058 52.7605 4.02447C52.8939 3.99836 53.0316 4.00294 53.163 4.03787C53.2943 4.07279 53.416 4.13713 53.5185 4.22597C53.621 4.3148 53.7018 4.42579 53.7546 4.55043C54.1664 5.45224 54.5732 6.35625 54.9824 7.25921C55.7432 8.93837 56.5042 10.6175 57.2654 12.2965C57.282 12.3331 57.3003 12.3689 57.3322 12.4346Z" fill="#fff"/>
  <path d="M80.8033 12.4326C81.0306 11.9309 81.247 11.4532 81.4633 10.9755C82.431 8.83844 83.3988 6.70143 84.3667 4.56445C84.4367 4.39139 84.5597 4.2447 84.7184 4.14526C84.8771 4.04582 85.0633 3.99869 85.2504 4.0106C85.4376 4.0225 85.6162 4.09282 85.7609 4.21155C85.9055 4.33028 86.0088 4.49137 86.0561 4.67189C86.1091 4.87811 86.0871 5.09634 85.9939 5.28795C84.8901 7.72289 83.787 10.1581 82.6846 12.5937C82.3497 13.3332 82.0122 14.0716 81.6814 14.813C81.5105 15.1958 81.2237 15.4145 80.8021 15.416C80.3805 15.4174 80.0923 15.2004 79.9196 14.8186C78.4889 11.6555 77.0569 8.49297 75.6236 5.33105C75.3585 4.746 75.6288 4.15676 76.2262 4.02706C76.4293 3.98513 76.6406 4.01505 76.8239 4.11166C77.0071 4.20827 77.1506 4.3655 77.2297 4.55619C77.7014 5.59334 78.1717 6.6311 78.6406 7.66947C79.34 9.21419 80.0391 10.759 80.7382 12.3038C80.7547 12.3403 80.7743 12.3754 80.8033 12.4326Z" fill="#fff"/>
  <path d="M16.314 10.0295C16.3135 10.8429 16.1512 11.6481 15.8365 12.3989C15.5217 13.1496 15.0607 13.8309 14.48 14.4036C13.8993 14.9763 13.2104 15.4291 12.4531 15.7358C11.6957 16.0426 10.8847 16.1972 10.067 16.1908C9.24943 16.1872 8.44068 16.0229 7.68727 15.7071C6.93385 15.3914 6.25065 14.9306 5.677 14.3513C5.10334 13.7719 4.65055 13.0854 4.34469 12.3313C4.03883 11.5772 3.88594 10.7704 3.89482 9.95728C3.9153 8.33337 4.57907 6.78305 5.74198 5.64302C6.9049 4.50299 8.47305 3.86532 10.1059 3.86848C10.9204 3.86688 11.7273 4.02505 12.4803 4.33394C13.2334 4.64283 13.9178 5.09637 14.4944 5.66862C15.071 6.24086 15.5285 6.92058 15.8408 7.66887C16.153 8.41716 16.3138 9.21935 16.314 10.0295Z" fill="#fff"/>
</svg>