<svg xmlns="http://www.w3.org/2000/svg" width="26" height="24" viewBox="0 0 26 24" fill="none">
  <path d="M11.3398 16.314C12.5804 16.314 13.743 15.9524 14.7105 15.3347L18.128 18.6419C18.3543 18.8528 18.643 18.9583 18.9551 18.9583C19.6027 18.9583 20.0786 18.4686 20.0786 17.8509C20.0786 17.5646 19.9772 17.2858 19.7587 17.0749L16.3647 13.7828C17.0669 12.8185 17.4804 11.6508 17.4804 10.3852C17.4804 7.12315 14.7183 4.4563 11.3398 4.4563C7.96912 4.4563 5.19922 7.12315 5.19922 10.3852C5.19922 13.6472 7.96132 16.314 11.3398 16.314ZM11.3398 14.732C8.86641 14.732 6.83776 12.7733 6.83776 10.3852C6.83776 7.99704 8.86641 6.03833 11.3398 6.03833C13.8132 6.03833 15.8418 7.99704 15.8418 10.3852C15.8418 12.7733 13.8132 14.732 11.3398 14.732Z" fill="white"/>
</svg>