<svg xmlns="http://www.w3.org/2000/svg" width="26" height="24" viewBox="0 0 26 24" fill="none">
  <path d="M13.3494 19.493C17.774 19.493 21.4259 15.968 21.4259 11.703C21.4259 7.44 17.7657 3.914 13.3422 3.914C8.92587 3.914 5.28223 7.44 5.28223 11.704C5.28223 15.968 8.93312 19.494 13.3504 19.494L13.3494 19.493ZM13.3494 14.31C11.1495 14.31 9.44062 15.071 8.61412 15.945C7.51027 14.7904 6.89976 13.2753 6.90519 11.704C6.90109 10.886 7.06467 10.0753 7.38652 9.31868C7.70836 8.56201 8.1821 7.87431 8.78044 7.29521C9.37878 6.71611 10.0899 6.25705 10.8728 5.94448C11.6557 5.63191 12.495 5.47201 13.3422 5.474C14.191 5.4715 15.0319 5.63083 15.8168 5.94284C16.6017 6.25486 17.3151 6.71342 17.916 7.29224C18.517 7.87105 18.9936 8.55871 19.3187 9.31579C19.6437 10.0729 19.8107 10.8845 19.8102 11.704C19.8152 13.2789 19.202 14.7972 18.094 15.953C17.2665 15.071 15.5575 14.31 13.3504 14.31H13.3494ZM13.3494 13.075C14.8636 13.09 16.0423 11.839 16.0423 10.227C16.0423 8.705 14.8553 7.432 13.3494 7.432C11.8518 7.432 10.6576 8.705 10.6659 10.227C10.6731 11.839 11.8445 13.067 13.3494 13.075Z" fill="black"/>
</svg>