<svg xmlns="http://www.w3.org/2000/svg" width="26" height="24" viewBox="0 0 26 24" fill="none">
  <path d="M5.42781 6.41521H20.1278C20.5257 6.41521 20.8456 6.09881 20.8456 5.72213C20.8456 5.33039 20.5257 5.02905 20.1278 5.02905H5.42781C5.02988 5.02905 4.71777 5.33793 4.71777 5.72213C4.71777 6.09881 5.02988 6.41521 5.42781 6.41521ZM5.42781 10.3628H20.1278C20.5257 10.3628 20.8456 10.0464 20.8456 9.66968C20.8456 9.27794 20.5257 8.9766 20.1278 8.9766H5.42781C5.02988 8.9766 4.71777 9.28547 4.71777 9.66968C4.71777 10.0464 5.02988 10.3628 5.42781 10.3628ZM5.42781 14.3103H20.1278C20.5257 14.3103 20.8456 13.9939 20.8456 13.6172C20.8456 13.233 20.5257 12.9241 20.1278 12.9241H5.42781C5.02988 12.9241 4.71777 13.233 4.71777 13.6172C4.71777 13.9939 5.02988 14.3103 5.42781 14.3103ZM5.42781 18.2578H20.1278C20.5257 18.2578 20.8456 17.9414 20.8456 17.5648C20.8456 17.1806 20.5257 16.8717 20.1278 16.8717H5.42781C5.02988 16.8717 4.71777 17.1806 4.71777 17.5648C4.71777 17.9414 5.02988 18.2578 5.42781 18.2578Z" fill="black"/>
</svg>