<svg xmlns="http://www.w3.org/2000/svg" width="18" height="17" viewBox="0 0 18 17" fill="none">
  <path d="M10.6857 16.1262C11.2943 16.1262 11.7156 15.6516 12.0042 14.9283L17.1539 1.92555C17.2866 1.58655 17.3646 1.29274 17.3646 1.0366C17.3646 0.50173 17.0135 0.16272 16.4517 0.16272C16.1942 0.16272 15.8822 0.23052 15.5388 0.35859L2.00924 5.36082C1.33822 5.60943 0.831055 6.0162 0.831055 6.6038C0.831055 7.3271 1.38504 7.5983 2.14968 7.8167L7.78309 9.4138L9.42169 14.7927C9.65577 15.5612 9.93665 16.1262 10.6857 16.1262ZM8.2357 8.0277L3.39029 6.5963C3.27325 6.5662 3.24204 6.5285 3.24204 6.4833C3.24204 6.4306 3.27325 6.3854 3.37469 6.3552L12.6363 2.93504C13.2995 2.68644 13.9471 2.3851 14.6571 2.06869C14.0954 2.50563 13.4088 3.04051 12.9406 3.49252L8.2357 8.0277ZM10.8261 13.8059C10.7715 13.8059 10.7325 13.7607 10.7012 13.6552L9.2188 8.9769L13.9159 4.4342C14.3685 3.98973 14.9459 3.30418 15.3984 2.75424C15.0707 3.44732 14.7508 4.08013 14.4933 4.72801L10.9509 13.6703C10.912 13.7682 10.8807 13.8059 10.8261 13.8059Z" fill="black"/>
</svg>