<svg xmlns="http://www.w3.org/2000/svg" width="26" height="24" viewBox="0 0 26 24" fill="none">
  <path d="M11.3398 16.3141C12.5804 16.3141 13.743 15.9525 14.7105 15.3348L18.128 18.642C18.3543 18.8529 18.643 18.9584 18.9551 18.9584C19.6027 18.9584 20.0786 18.4687 20.0786 17.851C20.0786 17.5647 19.9772 17.2859 19.7587 17.075L16.3647 13.7829C17.0669 12.8186 17.4804 11.6509 17.4804 10.3853C17.4804 7.12327 14.7183 4.45642 11.3398 4.45642C7.96912 4.45642 5.19922 7.12327 5.19922 10.3853C5.19922 13.6473 7.96132 16.3141 11.3398 16.3141ZM11.3398 14.7321C8.86641 14.7321 6.83776 12.7734 6.83776 10.3853C6.83776 7.99716 8.86641 6.03845 11.3398 6.03845C13.8132 6.03845 15.8418 7.99716 15.8418 10.3853C15.8418 12.7734 13.8132 14.7321 11.3398 14.7321Z" fill="black"/>
</svg>