<svg xmlns="http://www.w3.org/2000/svg" width="16" height="16" viewBox="0 0 16 16" fill="none">
  <path d="M8 16C12.4183 16 16 12.4183 16 8C16 3.58172 12.4183 0 8 0C3.58172 0 0 3.58172 0 8C0 12.4183 3.58172 16 8 16Z" fill="url(#paint0_linear_594_2159)"/>
  <path d="M3.63704 11L4.12904 9.58699H6.48104L6.97704 11H8.07704L5.78004 4.92999H4.83404L2.54004 11H3.63604H3.63704ZM6.18504 8.73599H4.42504L5.30504 6.21799L6.18504 8.73599ZM10.979 11C11.659 11 12.183 10.847 12.549 10.541C12.914 10.236 13.096 9.79799 13.096 9.22799C13.096 8.88399 13.006 8.58799 12.827 8.34199C12.648 8.09599 12.395 7.92899 12.067 7.83999C12.356 7.71799 12.575 7.54599 12.725 7.32299C12.875 7.10099 12.95 6.85099 12.95 6.57299C12.95 6.02799 12.771 5.61799 12.413 5.34299C12.054 5.06799 11.532 4.92999 10.845 4.92999H8.76504V11H10.979ZM10.853 7.48599H9.82004V5.77999H10.845C11.206 5.77999 11.473 5.84599 11.643 5.97999C11.814 6.11299 11.9 6.32999 11.9 6.62999C11.9 6.90299 11.807 7.11299 11.623 7.26199C11.438 7.40999 11.181 7.48499 10.853 7.48499V7.48599ZM10.991 10.158H9.82004V8.25999H11.079C11.723 8.27399 12.046 8.59599 12.046 9.22699C12.046 9.51899 11.953 9.74699 11.766 9.91099C11.58 10.075 11.322 10.157 10.991 10.157V10.158Z" fill="white"/>
  <defs>
    <linearGradient id="paint0_linear_594_2159" x1="8" y1="0" x2="8" y2="16" gradientUnits="userSpaceOnUse">
      <stop stop-color="#A3A9B8"/>
      <stop offset="1" stop-color="#868A95"/>
    </linearGradient>
  </defs>
</svg>