<svg xmlns="http://www.w3.org/2000/svg" width="16" height="16" viewBox="0 0 16 16" fill="none">
  <path d="M8.0001 10C9.10467 10 10.0001 9.10457 10.0001 8C10.0001 6.89543 9.10467 6 8.0001 6M8.0001 10C6.89553 10 6.0001 9.10457 6.0001 8C6.0001 6.89543 6.89553 6 8.0001 6M8.0001 10V12.5M8.0001 6V3.5M8.0001 3.5C8.82853 3.5 9.5001 2.82843 9.5001 2C9.5001 1.17157 8.82853 0.5 8.0001 0.5C7.17167 0.5 6.5001 1.17157 6.5001 2C6.5001 2.82843 7.17167 3.5 8.0001 3.5ZM4.103 5.75003C4.51721 5.0326 4.2714 4.11521 3.55396 3.701C2.83652 3.28678 1.91914 3.5326 1.50492 4.25003C1.09071 4.96747 1.33652 5.88486 2.05396 6.29907C2.7714 6.71329 3.68879 6.46747 4.103 5.75003ZM4.103 5.75003L6.26806 7.00003M4.103 10.25C3.68879 9.5326 2.7714 9.28678 2.05396 9.701C1.33652 10.1152 1.09071 11.0326 1.50492 11.75C1.91914 12.4675 2.83652 12.7133 3.55396 12.2991C4.2714 11.8849 4.51721 10.9675 4.103 10.25ZM4.103 10.25L6.26806 9.00003M8.0001 12.5C7.17167 12.5 6.5001 13.1716 6.5001 14C6.5001 14.8284 7.17167 15.5 8.0001 15.5C8.82853 15.5 9.5001 14.8284 9.5001 14C9.5001 13.1716 8.82853 12.5 8.0001 12.5ZM11.8972 10.25C11.483 10.9674 11.7288 11.8848 12.4462 12.299C13.1637 12.7132 14.0811 12.4674 14.4953 11.75C14.9095 11.0325 14.6637 10.1151 13.9462 9.70093C13.2288 9.28671 12.3114 9.53253 11.8972 10.25ZM11.8972 10.25L9.73214 8.99997M11.8972 5.74997C12.3114 6.4674 13.2288 6.71322 13.9462 6.299C14.6637 5.88479 14.9095 4.9674 14.4953 4.24997C14.0811 3.53253 13.1637 3.28671 12.4462 3.70093C11.7288 4.11514 11.483 5.03253 11.8972 5.74997ZM11.8972 5.74997L9.73214 6.99997" stroke="#636366" stroke-linecap="round"/>
</svg>