<svg xmlns="http://www.w3.org/2000/svg" width="16" height="16" viewBox="0 0 16 16" fill="none">
  <path d="M12.517 4.76138V3.85227C12.517 2.63636 11.8693 2 10.642 2H2.36932C1.13636 2 0.5 2.63068 0.5 3.85227V9.59659C0.5 10.8125 1.13636 11.4489 2.36932 11.4489H3.48297M12.517 4.76138H13.625C14.8523 4.76138 15.5 5.39775 15.5 6.61366V12.358C15.5 13.5739 14.8523 14.2102 13.625 14.2102H5.35229C4.11933 14.2102 3.48297 13.5739 3.48297 12.358V11.4489M12.517 4.76138H5.35229C4.11933 4.76138 3.48297 5.39206 3.48297 6.61366V11.4489" stroke="#636366"/>
  <rect x="5" y="11" width="2" height="1.5" rx="0.5" fill="#636366"/>
  <path d="M3 8.09717L15 8.09717" stroke="#636366" stroke-width="1.5"/>
</svg>