<svg xmlns="http://www.w3.org/2000/svg" width="16" height="16" viewBox="0 0 16 16" fill="none">
  <g clip-path="url(#clip0_584_11783)">
    <path d="M8 13.9999C9.5913 13.9999 11.1174 13.3677 12.2426 12.2425C13.3679 11.1173 14 9.59118 14 7.99988C14 6.40858 13.3679 4.88246 12.2426 3.75724C11.1174 2.63202 9.5913 1.99988 8 1.99988C6.4087 1.99988 4.88258 2.63202 3.75736 3.75724C2.63214 4.88246 2 6.40858 2 7.99988C2 9.59118 2.63214 11.1173 3.75736 12.2425C4.88258 13.3677 6.4087 13.9999 8 13.9999Z" stroke="#636366" stroke-linecap="round" stroke-linejoin="round"/>
    <path d="M8 9.49988C8.39782 9.49988 8.77936 9.34184 9.06066 9.06054C9.34196 8.77923 9.5 8.3977 9.5 7.99988C9.5 7.60205 9.34196 7.22052 9.06066 6.93922C8.77936 6.65791 8.39782 6.49988 8 6.49988C7.60218 6.49988 7.22064 6.65791 6.93934 6.93922C6.65804 7.22052 6.5 7.60205 6.5 7.99988C6.5 8.3977 6.65804 8.77923 6.93934 9.06054C7.22064 9.34184 7.60218 9.49988 8 9.49988Z" stroke="#636366" stroke-linecap="round" stroke-linejoin="round"/>
    <path d="M8 0.5V2" stroke="#636366" stroke-linecap="round" stroke-linejoin="round"/>
    <path d="M8 15.5V14" stroke="#636366" stroke-linecap="round" stroke-linejoin="round"/>
    <path d="M11.75 14.495L11 13.1975" stroke="#636366" stroke-linecap="round" stroke-linejoin="round"/>
    <path d="M7.25 6.70251L4.25 1.505" stroke="#636366" stroke-linecap="round" stroke-linejoin="round"/>
    <path d="M14.4948 11.7499L13.1973 10.9999" stroke="#636366" stroke-linecap="round" stroke-linejoin="round"/>
    <path d="M1.50488 4.24988L2.80238 4.99988" stroke="#636366" stroke-linecap="round" stroke-linejoin="round"/>
    <path d="M9.5 8H15.5" stroke="#636366" stroke-linecap="round" stroke-linejoin="round"/>
    <path d="M0.5 8H2" stroke="#636366" stroke-linecap="round" stroke-linejoin="round"/>
    <path d="M14.4948 4.24988L13.1973 4.99988" stroke="#636366" stroke-linecap="round" stroke-linejoin="round"/>
    <path d="M1.50488 11.7499L2.80238 10.9999" stroke="#636366" stroke-linecap="round" stroke-linejoin="round"/>
    <path d="M11.75 1.505L11 2.80251" stroke="#636366" stroke-linecap="round" stroke-linejoin="round"/>
    <path d="M7.25 9.29749L4.25 14.495" stroke="#636366" stroke-linecap="round" stroke-linejoin="round"/>
  </g>
  <defs>
    <clipPath id="clip0_584_11783">
      <rect width="16" height="16" fill="white"/>
    </clipPath>
  </defs>
</svg>